<svg xmlns="http://www.w3.org/2000/svg" viewBox="0 0 699.48 141.7"><defs><style>.cls-1{fill:#0a51a1;}</style></defs><g id="Layer_2" data-name="Layer 2"><g id="Layer_1-2" data-name="Layer 1"><path d="M202.91,22.31a8.44,8.44,0,0,1-3.07-3,7.88,7.88,0,0,1,0-8.2A8.85,8.85,0,0,1,202.91,8,7.75,7.75,0,0,1,207,6.88,8.26,8.26,0,0,1,211.28,8a8.85,8.85,0,0,1,3.13,3.07,7.88,7.88,0,0,1,0,8.2,8.45,8.45,0,0,1-3.13,3,8.62,8.62,0,0,1-4.27,1.1A8.08,8.08,0,0,1,202.91,22.31ZM201,83.85V32.77l12.48-1.27V83.85Z"/><path d="M283.17,17.68q10.41,8.73,10.41,28.73,0,12.59-5.38,21a32.29,32.29,0,0,1-14.73,12.43,53.15,53.15,0,0,1-21.27,4H229.89V9h23.58Q272.77,9,283.17,17.68ZM266.65,70.45a18.07,18.07,0,0,0,9.84-7.92q3.45-5.73,3.45-16.12,0-13.87-6.38-20.06t-19.72-6.18H243.07V72.64h7.25Q260.28,72.64,266.65,70.45Z"/><path d="M320.39,72.87H356.1v11H307.21V9h48.32V19.82H320.39V40.4H350.9L349.4,51h-29Z"/><path d="M420,9h13.4v.81l-27.5,74.08H390.66L363.15,9.77V9H377l21.5,61.83Z"/><path d="M457.23,72.87H493v11H444.06V9h48.31V19.82H457.23V40.4h30.52L486.24,51h-29Z"/><path d="M520.45,72.41h35.6V83.85H507.28V9h13.17Z"/><path d="M575.47,80.44a30.83,30.83,0,0,1-12.19-13.75,48.21,48.21,0,0,1-4.11-20.52q0-12.93,5-21.67a31.26,31.26,0,0,1,13.29-12.88,40.73,40.73,0,0,1,18.5-4.16q11.55,0,19.65,4.91a30.58,30.58,0,0,1,12.13,13.75,48.83,48.83,0,0,1,4,20.52q0,12.95-5,21.67a31.31,31.31,0,0,1-13.24,12.88,40.32,40.32,0,0,1-18.43,4.17Q583.55,85.36,575.47,80.44Zm32.36-9.53a20.78,20.78,0,0,0,7.75-9.65,38.08,38.08,0,0,0,2.54-14.51,41.69,41.69,0,0,0-2.43-14.91,19.71,19.71,0,0,0-19.76-13.4A22.61,22.61,0,0,0,583.1,21.9a20.78,20.78,0,0,0-7.75,9.65,38.12,38.12,0,0,0-2.54,14.51q0,13.06,5.66,20.69t16.65,7.63A22.43,22.43,0,0,0,607.83,70.91Z"/><path d="M686.77,11.91a21.19,21.19,0,0,1,9.54,8.2,23.19,23.19,0,0,1,3.17,12.19,25.45,25.45,0,0,1-3.23,12.83,22.51,22.51,0,0,1-9.83,9q-6.58,3.3-16.06,3.3H658.68V83.85H645.51V9h25.54Q680.41,9,686.77,11.91Zm-.92,20.86q0-6.36-3.82-9.65t-11.21-3.3H658.68v26.7H669.2Q685.85,46.52,685.85,32.77Z"/><path d="M201.81,130.56a11.81,11.81,0,0,1-4.74-5.54,20.94,20.94,0,0,1-1.55-8.43,19,19,0,0,1,2-9.23,12.35,12.35,0,0,1,5.18-5.24,15,15,0,0,1,7-1.65,18.58,18.58,0,0,1,10.06,2.81l-1.91,3.34a14.78,14.78,0,0,0-8-2.33q-5,0-7.32,3.24c-1.58,2.16-2.36,5.1-2.36,8.82s.82,6.86,2.48,9.06A8.56,8.56,0,0,0,210,128.7a14.64,14.64,0,0,0,4.39-.62,20.14,20.14,0,0,0,3.91-1.77l1.76,3.2a24.8,24.8,0,0,1-4.93,2.24,17.54,17.54,0,0,1-5.32.76A15,15,0,0,1,201.81,130.56Z"/><path d="M234.09,128.12h15.16v3.82H229.7V101h4.39Z"/><path d="M262.55,130.84a10.33,10.33,0,0,1-4.25-4.6,15.42,15.42,0,0,1-1.38-6.65V101h4.39v17.6q0,10,8.68,10.06,4.42,0,6.41-2.55t2-7.23V101h4.38v18.41a14.66,14.66,0,0,1-1.71,7.46,10.3,10.3,0,0,1-4.65,4.27,16,16,0,0,1-6.7,1.33A14,14,0,0,1,262.55,130.84Z"/><path d="M315.71,118.59a7.72,7.72,0,0,1,1.57,4.72,8,8,0,0,1-1.26,4.43,8.46,8.46,0,0,1-3.79,3.08,15.12,15.12,0,0,1-6.15,1.12H294.92V101h10.77a13.83,13.83,0,0,1,5.58,1,8.25,8.25,0,0,1,3.58,2.81,7.11,7.11,0,0,1,1.24,4.13,6.64,6.64,0,0,1-1.27,4,7.6,7.6,0,0,1-4,2.67A8.29,8.29,0,0,1,315.71,118.59Zm-16.4-13.92v9.72h5.76a8.3,8.3,0,0,0,4.72-1.21,4.88,4.88,0,0,0,1.15-6.27,4.52,4.52,0,0,0-2-1.65,7.73,7.73,0,0,0-3.17-.59Zm11.82,22.21a4.78,4.78,0,0,0,1.53-3.67,4.91,4.91,0,0,0-1.63-3.86,7.09,7.09,0,0,0-4.81-1.43h-6.91v10.4h6.86Q309.6,128.32,311.13,126.88Z"/><path d="M333.3,130.84a10.33,10.33,0,0,1-4.25-4.6,15.42,15.42,0,0,1-1.38-6.65V101h4.39v17.6q0,10,8.68,10.06,4.42,0,6.41-2.55t2-7.23V101h4.38v18.41a14.66,14.66,0,0,1-1.71,7.46,10.3,10.3,0,0,1-4.65,4.27,16,16,0,0,1-6.7,1.33A14,14,0,0,1,333.3,130.84Z"/><path d="M388.41,101v3.82H377.73v27.08h-4.38V104.86H362.62V101Z"/><path d="M429.65,101v30.9h-4.29V108.2a36.21,36.21,0,0,1-1.86,4.29l-7.44,14.44h-4.24l-7.29-14.44c-.42-.8-.81-1.57-1.17-2.32s-.66-1.39-.88-1.93v23.7h-4.2V101h5l7,13.64A70.72,70.72,0,0,1,414,123a36,36,0,0,1,1.46-3.67q.93-2,2.31-4.67l7-13.64Z"/><path d="M463.36,118.59a7.66,7.66,0,0,1,1.57,4.72,8,8,0,0,1-1.26,4.43,8.41,8.41,0,0,1-3.79,3.08,15.12,15.12,0,0,1-6.15,1.12H442.57V101h10.78a13.9,13.9,0,0,1,5.58,1,8.28,8.28,0,0,1,3.57,2.81,7,7,0,0,1,1.24,4.13,6.7,6.7,0,0,1-1.26,4,7.68,7.68,0,0,1-4,2.67A8.29,8.29,0,0,1,463.36,118.59ZM447,104.67v9.72h5.77a8.35,8.35,0,0,0,4.72-1.21,4.36,4.36,0,0,0,1.81-3.89,4.29,4.29,0,0,0-.67-2.38,4.41,4.41,0,0,0-2-1.65,7.73,7.73,0,0,0-3.17-.59Zm11.82,22.21a4.78,4.78,0,0,0,1.53-3.67,4.9,4.9,0,0,0-1.62-3.86,7.11,7.11,0,0,0-4.82-1.43H447v10.4h6.86Q457.26,128.32,458.78,126.88Z"/><path class="cls-1" d="M46.25,141.7H0v-6.64l12.79-2c3.45-.49,5.78-1.36,7-2.59s1.85-3.16,1.85-5.78V17q0-4.17-1.85-5.9c-1.23-1.15-3.56-2.05-7-2.71L0,6.64V0H46.25Z"/><path class="cls-1" d="M106.28,0V6.64L93.49,8.36q-5.16,1-7,2.71T84.64,17V124.72q0,3.93,1.84,5.78c1.23,1.23,3.57,2.1,7,2.59l12.79,2v6.64H60V0Z"/><path class="cls-1" d="M146.15,70.36q-17.72-4.19-17.71-28.29,0-18-3.08-26.69t-10.45-11L116.14,0Q134.83,2,145,13.28t10.21,30.51q0,13.53,2.46,18.82t9.6,6.52v3.44q-7.14,1.23-9.6,6.52t-2.46,18.82q0,19.19-10.21,30.5t-28.9,13.29L114.91,137q7.38-2,10.45-10.94t3.08-27.43Q128.44,74.05,146.15,70.36Z"/></g></g></svg>